<?xml version="1.0" standalone="no"?>
<!DOCTYPE svg PUBLIC "-//W3C//DTD SVG 20010904//EN"
 "http://www.w3.org/TR/2001/REC-SVG-20010904/DTD/svg10.dtd">
<svg version="1.0" xmlns="http://www.w3.org/2000/svg"
 width="2048.000000pt" height="2048.000000pt" viewBox="0 0 2048.000000 2048.000000"
 preserveAspectRatio="xMidYMid meet">

<g transform="translate(0.000000,2048.000000) scale(0.100000,-0.100000)"
fill="#000000" stroke="none">
<path d="M10000 17764 c-194 -8 -446 -26 -620 -45 -1285 -140 -2508 -599
-3570 -1340 -760 -531 -1434 -1212 -1952 -1974 -1139 -1675 -1554 -3722 -1158
-5715 313 -1580 1148 -3040 2365 -4136 216 -195 669 -554 698 -554 4 0 15 17
26 37 86 171 228 892 273 1393 17 193 17 981 0 1185 -34 393 -64 634 -113 889
-34 178 -47 235 -147 626 -100 390 -132 605 -132 890 0 323 40 547 185 1024
147 487 184 711 210 1281 38 835 91 1162 236 1446 72 141 131 213 354 441 417
423 462 538 373 938 -51 225 -65 369 -50 502 30 276 134 486 351 711 273 282
576 465 876 528 97 21 258 17 340 -9 124 -38 189 -93 243 -210 25 -53 27 -66
26 -187 0 -112 -4 -142 -28 -220 -38 -125 -141 -328 -235 -465 -294 -425 -381
-576 -421 -734 -24 -94 -26 -212 -5 -282 35 -117 159 -262 380 -442 298 -244
395 -352 524 -589 162 -296 291 -618 540 -1347 100 -291 152 -387 267 -497
202 -191 480 -285 943 -320 496 -36 896 33 1306 226 344 161 606 391 676 591
24 68 25 209 3 325 -8 46 -37 143 -64 214 -105 281 -112 402 -35 633 109 324
370 692 628 885 208 155 386 223 607 234 252 11 428 -73 508 -245 24 -51 27
-69 27 -167 0 -171 -18 -213 -295 -710 -192 -344 -278 -517 -319 -641 -57
-169 -37 -300 54 -352 36 -20 50 -22 135 -19 117 5 215 36 385 122 215 109
373 217 649 444 328 269 438 401 686 821 85 145 117 189 184 256 199 199 436
218 597 47 100 -106 143 -262 120 -434 -24 -182 -85 -330 -221 -533 -148 -220
-296 -394 -825 -966 -476 -516 -676 -754 -840 -999 -166 -249 -233 -410 -242
-581 -10 -183 23 -616 73 -940 145 -944 522 -1982 1052 -2895 185 -318 334
-532 425 -611 l42 -35 28 33 c16 18 70 85 121 148 1290 1604 1862 3607 1615
5655 -166 1381 -728 2705 -1613 3805 -387 481 -868 946 -1364 1318 -1205 905
-2621 1430 -4132 1531 -162 11 -620 20 -750 15z"/>
<path d="M10090 9604 c-14 -2 -56 -9 -95 -15 -491 -79 -738 -529 -820 -1494
-36 -431 -43 -1119 -25 -2570 14 -1129 42 -1570 130 -2005 109 -542 263 -762
630 -899 93 -34 119 -40 225 -45 141 -8 571 8 805 30 338 31 712 91 1033 164
138 32 195 58 349 163 101 68 197 166 233 237 116 229 94 922 -71 2240 -56
447 -274 1934 -374 2550 -67 412 -160 685 -311 914 -64 98 -218 259 -320 335
-236 179 -548 299 -948 367 -136 23 -381 39 -441 28z"/>
<path d="M7394 6736 c-341 -151 -444 -2408 -153 -3351 17 -55 47 -134 66 -177
l35 -76 96 -37 c54 -21 152 -57 219 -81 l122 -43 26 31 c71 84 120 255 145
508 13 134 14 639 0 885 -61 1141 -221 2040 -406 2283 -47 60 -99 81 -150 58z"/>
<path d="M13732 6563 c-125 -61 -197 -341 -209 -808 -18 -714 122 -1565 325
-1989 66 -136 82 -150 181 -154 l77 -4 105 62 c159 95 458 295 609 408 126 93
137 104 157 155 36 89 55 178 55 248 -1 297 -329 1102 -649 1594 -218 333
-409 505 -562 505 -31 0 -71 -8 -89 -17z"/>
</g>
</svg>
